<?xml version="1.0" encoding="UTF-8" standalone="no"?>
<svg
   xmlns:dc="http://purl.org/dc/elements/1.1/"
   xmlns:cc="http://creativecommons.org/ns#"
   xmlns:rdf="http://www.w3.org/1999/02/22-rdf-syntax-ns#"
   xmlns:svg="http://www.w3.org/2000/svg"
   xmlns="http://www.w3.org/2000/svg"
   xmlns:sodipodi="http://sodipodi.sourceforge.net/DTD/sodipodi-0.dtd"
   xmlns:inkscape="http://www.inkscape.org/namespaces/inkscape"
   width="128"
   height="128"
   viewBox="0 0 128 128.00001"
   version="1.1"
   id="svg8"
   inkscape:version="1.0.1 (c497b03c, 2020-09-10)"
   sodipodi:docname="team.svg">
  <defs
     id="defs2">
    <inkscape:path-effect
       effect="powerclip"
       id="path-effect907"
       is_visible="true"
       lpeversion="1"
       inverse="true"
       flatten="false"
       hide_clip="false"
       message="Use fill-rule evenodd on &lt;b&gt;fill and stroke&lt;/b&gt; dialog if no flatten result after convert clip to paths." />
    <clipPath
       clipPathUnits="userSpaceOnUse"
       id="clipPath903">
      <path
         style="color:#000000;font-style:normal;font-variant:normal;font-weight:normal;font-stretch:normal;font-size:medium;line-height:normal;font-family:sans-serif;font-variant-ligatures:normal;font-variant-position:normal;font-variant-caps:normal;font-variant-numeric:normal;font-variant-alternates:normal;font-variant-east-asian:normal;font-feature-settings:normal;font-variation-settings:normal;text-indent:0;text-align:start;text-decoration:none;text-decoration-line:none;text-decoration-style:solid;text-decoration-color:#000000;letter-spacing:normal;word-spacing:normal;text-transform:none;writing-mode:lr-tb;direction:ltr;text-orientation:mixed;dominant-baseline:auto;baseline-shift:baseline;text-anchor:start;white-space:normal;shape-padding:0;shape-margin:0;inline-size:0;clip-rule:nonzero;display:none;overflow:visible;visibility:visible;opacity:0.99;isolation:auto;mix-blend-mode:normal;color-interpolation:sRGB;color-interpolation-filters:linearRGB;solid-color:#000000;solid-opacity:1;vector-effect:none;fill:#000000;fill-opacity:1;fill-rule:evenodd;stroke:none;stroke-width:15;stroke-linecap:butt;stroke-linejoin:miter;stroke-miterlimit:4;stroke-dasharray:none;stroke-dashoffset:0;stroke-opacity:1;color-rendering:auto;image-rendering:auto;shape-rendering:auto;text-rendering:auto;enable-background:accumulate;stop-color:#000000"
         d="M 63.830078,7 C 52.661023,7.0922956 43.499619,16.330563 43.5,27.5 c 0,3.545905 1.005852,6.845093 2.623047,9.769531 C 40.73701,40.275152 37,45.973097 37,52.5 v 30 c 0,5.42652 2.554955,10.298206 6.5,13.521484 V 112.5 c 0,7.34927 6.150729,13.5 13.5,13.5 h 14 c 7.349271,0 13.5,-6.15073 13.5,-13.5 V 96.021484 C 88.445045,92.798206 91,87.92652 91,82.5 v -30 C 91,45.973097 87.26299,40.275152 81.876953,37.269531 83.494148,34.345093 84.5,31.045905 84.5,27.5 84.5,16.266997 75.233003,7 64,7 63.95392,6.9998796 63.90741,6.9998096 63.861328,7 h -0.01563 z m 0.125,15 c 0.0046,7e-6 0.0091,-1.9e-5 0.01367,0 H 63.984375 64 c 3.126401,0 5.5,2.373599 5.5,5.5 0,3.126401 -2.373599,5.5 -5.5,5.5 -3.126401,0 -5.5,-2.373599 -5.5,-5.5 -1.06e-4,-3.106482 2.348702,-5.47433 5.455078,-5.5 z M 54.5,50 h 2.5 14 2.5 c 1.514729,0 2.5,0.985271 2.5,2.5 v 30 c 0,1.171926 -0.672201,1.983161 -1.615234,2.333984 L 69.5,86.650391 V 111 h -11 V 86.650391 L 53.615234,84.833984 C 52.672201,84.483161 52,83.671926 52,82.5 v -30 C 52,50.985271 52.985271,50 54.5,50 Z"
         id="path905" />
      <path
         id="lpe_path-effect907"
         style="color:#000000;font-style:normal;font-variant:normal;font-weight:normal;font-stretch:normal;font-size:medium;line-height:normal;font-family:sans-serif;font-variant-ligatures:normal;font-variant-position:normal;font-variant-caps:normal;font-variant-numeric:normal;font-variant-alternates:normal;font-variant-east-asian:normal;font-feature-settings:normal;font-variation-settings:normal;text-indent:0;text-align:start;text-decoration:none;text-decoration-line:none;text-decoration-style:solid;text-decoration-color:#000000;letter-spacing:normal;word-spacing:normal;text-transform:none;writing-mode:lr-tb;direction:ltr;text-orientation:mixed;dominant-baseline:auto;baseline-shift:baseline;text-anchor:start;white-space:normal;shape-padding:0;shape-margin:0;inline-size:0;clip-rule:nonzero;display:inline;overflow:visible;visibility:visible;opacity:0.99;isolation:auto;mix-blend-mode:normal;color-interpolation:sRGB;color-interpolation-filters:linearRGB;solid-color:#000000;solid-opacity:1;vector-effect:none;fill:#000000;fill-opacity:1;fill-rule:evenodd;stroke:none;stroke-width:15;stroke-linecap:butt;stroke-linejoin:miter;stroke-miterlimit:4;stroke-dasharray:none;stroke-dashoffset:0;stroke-opacity:1;color-rendering:auto;image-rendering:auto;shape-rendering:auto;text-rendering:auto;enable-background:accumulate;stop-color:#000000"
         class="powerclip"
         d="m 9.5,-0.50011096 h 109 V 113.5 H 9.5 Z M 63.830078,7 C 52.661023,7.0922956 43.499619,16.330563 43.5,27.5 c 0,3.545905 1.005852,6.845093 2.623047,9.769531 C 40.73701,40.275152 37,45.973097 37,52.5 v 30 c 0,5.42652 2.554955,10.298206 6.5,13.521484 V 112.5 c 0,7.34927 6.150729,13.5 13.5,13.5 h 14 c 7.349271,0 13.5,-6.15073 13.5,-13.5 V 96.021484 C 88.445045,92.798206 91,87.92652 91,82.5 v -30 C 91,45.973097 87.26299,40.275152 81.876953,37.269531 83.494148,34.345093 84.5,31.045905 84.5,27.5 84.5,16.266997 75.233003,7 64,7 63.95392,6.9998796 63.90741,6.9998096 63.861328,7 h -0.01563 z m 0.125,15 c -3.106376,0.02567 -5.455184,2.393518 -5.455078,5.5 0,3.126401 2.373599,5.5 5.5,5.5 3.126401,0 5.5,-2.373599 5.5,-5.5 C 69.5,24.373599 67.126401,22 64,22 h -0.01563 -0.01563 c -0.0046,-1.9e-5 -0.0091,7e-6 -0.01367,0 z M 54.5,50 C 52.985271,50 52,50.985271 52,52.5 v 30 c 0,1.171926 0.672201,1.983161 1.615234,2.333984 L 58.5,86.650391 V 111 h 11 V 86.650391 l 4.884766,-1.816407 C 75.327799,84.483161 76,83.671926 76,82.5 v -30 C 76,50.985271 75.014729,50 73.5,50 H 71 57 Z" />
    </clipPath>
  </defs>
  <sodipodi:namedview
     id="base"
     pagecolor="#ffffff"
     bordercolor="#666666"
     borderopacity="1.0"
     inkscape:pageopacity="0.0"
     inkscape:pageshadow="2"
     inkscape:zoom="5.3681198"
     inkscape:cx="67.085759"
     inkscape:cy="57.185306"
     inkscape:document-units="px"
     inkscape:current-layer="layer1"
     inkscape:document-rotation="0"
     showgrid="false"
     units="px"
     inkscape:window-width="1680"
     inkscape:window-height="1022"
     inkscape:window-x="0"
     inkscape:window-y="0"
     inkscape:window-maximized="0" />
  <metadata
     id="metadata5">
    <rdf:RDF>
      <cc:Work
         rdf:about="">
        <dc:format>image/svg+xml</dc:format>
        <dc:type
           rdf:resource="http://purl.org/dc/dcmitype/StillImage" />
        <dc:title />
      </cc:Work>
    </rdf:RDF>
  </metadata>
  <g
     inkscape:label="Layer 1"
     inkscape:groupmode="layer"
     id="layer1">
    <g
       id="g889"
       clip-path="url(#clipPath903)"
       inkscape:path-effect="#path-effect907">
      <path
         id="path16"
         style="opacity:0.99;fill:#000000;fill-opacity:1;fill-rule:evenodd;stroke:none"
         d="M 93.892578,4.5 A 13,13 0 0 0 81,17.5 a 13,13 0 0 0 13,13 13,13 0 0 0 13,-13 13,13 0 0 0 -13,-13 13,13 0 0 0 -0.107422,0 z M 84.5,32.5 c -5.54,0 -10,4.46 -10,10 v 30 c 0,4.305736 2.698672,7.949127 6.5,9.363281 V 102.5 c 0,3.324 2.676,6 6,6 h 14 c 3.324,0 6,-2.676 6,-6 V 81.863281 c 3.80133,-1.414154 6.5,-5.057545 6.5,-9.363281 v -30 c 0,-5.54 -4.46,-10 -10,-10 H 101 87 Z"
         inkscape:original-d="M 93.892578,4.5 A 13,13 0 0 0 81,17.5 a 13,13 0 0 0 13,13 13,13 0 0 0 13,-13 13,13 0 0 0 -13,-13 13,13 0 0 0 -0.107422,0 z M 84.5,32.5 c -5.54,0 -10,4.46 -10,10 v 30 c 0,4.305736 2.698672,7.949127 6.5,9.363281 V 102.5 c 0,3.324 2.676,6 6,6 h 14 c 3.324,0 6,-2.676 6,-6 V 81.863281 c 3.80133,-1.414154 6.5,-5.057545 6.5,-9.363281 v -30 c 0,-5.54 -4.46,-10 -10,-10 H 101 87 Z" />
      <path
         id="path18"
         style="opacity:0.99;fill:#000000;fill-opacity:1;fill-rule:evenodd;stroke:none"
         d="M 33.892578,4.5 A 13,13 0 0 0 21,17.5 a 13,13 0 0 0 13,13 13,13 0 0 0 13,-13 13,13 0 0 0 -13,-13 13,13 0 0 0 -0.107422,0 z M 24.5,32.5 c -5.54,0 -10,4.46 -10,10 v 30 c 0,4.305736 2.698672,7.949127 6.5,9.363281 V 102.5 c 0,3.324 2.676,6 6,6 h 14 c 3.324,0 6,-2.676 6,-6 V 81.863281 C 50.801328,80.449127 53.5,76.805736 53.5,72.5 v -30 c 0,-5.54 -4.46,-10 -10,-10 H 41 27 Z"
         inkscape:original-d="M 33.892578,4.5 A 13,13 0 0 0 21,17.5 a 13,13 0 0 0 13,13 13,13 0 0 0 13,-13 13,13 0 0 0 -13,-13 13,13 0 0 0 -0.107422,0 z M 24.5,32.5 c -5.54,0 -10,4.46 -10,10 v 30 c 0,4.305736 2.698672,7.949127 6.5,9.363281 V 102.5 c 0,3.324 2.676,6 6,6 h 14 c 3.324,0 6,-2.676 6,-6 V 81.863281 C 50.801328,80.449127 53.5,76.805736 53.5,72.5 v -30 c 0,-5.54 -4.46,-10 -10,-10 H 41 27 Z" />
    </g>
    <path
       style="color:#000000;font-style:normal;font-variant:normal;font-weight:normal;font-stretch:normal;font-size:medium;line-height:normal;font-family:sans-serif;font-variant-ligatures:normal;font-variant-position:normal;font-variant-caps:normal;font-variant-numeric:normal;font-variant-alternates:normal;font-variant-east-asian:normal;font-feature-settings:normal;font-variation-settings:normal;text-indent:0;text-align:start;text-decoration:none;text-decoration-line:none;text-decoration-style:solid;text-decoration-color:#000000;letter-spacing:normal;word-spacing:normal;text-transform:none;writing-mode:lr-tb;direction:ltr;text-orientation:mixed;dominant-baseline:auto;baseline-shift:baseline;text-anchor:start;white-space:normal;shape-padding:0;shape-margin:0;inline-size:0;clip-rule:nonzero;display:inline;overflow:visible;visibility:visible;opacity:0.99;isolation:auto;mix-blend-mode:normal;color-interpolation:sRGB;color-interpolation-filters:linearRGB;solid-color:#000000;solid-opacity:1;vector-effect:none;fill:#000000;fill-opacity:1;fill-rule:evenodd;stroke:none;stroke-width:15;stroke-linecap:butt;stroke-linejoin:miter;stroke-miterlimit:4;stroke-dasharray:none;stroke-dashoffset:0;stroke-opacity:1;color-rendering:auto;image-rendering:auto;shape-rendering:auto;text-rendering:auto;enable-background:accumulate;stop-color:#000000"
       d="M 63.892578,14.5 C 56.754862,14.558983 50.999756,20.362041 51,27.5 c 0,7.179702 5.820298,13 13,13 7.179702,0 13,-5.820298 13,-13 0,-7.179702 -5.820298,-13 -13,-13 -0.03581,-1.48e-4 -0.07162,-1.48e-4 -0.107422,0 z M 54.5,42.5 c -5.54,0 -10,4.46 -10,10 v 30 c 0,4.305736 2.698672,7.949127 6.5,9.363281 V 112.5 c 0,3.324 2.676,6 6,6 h 14 c 3.324,0 6,-2.676 6,-6 V 91.863281 C 80.801328,90.449127 83.5,86.805736 83.5,82.5 v -30 c 0,-5.54 -4.46,-10 -10,-10 H 71 57 Z"
       id="path849" />
  </g>
</svg>
